<svg width="102" height="82" viewBox="0 0 102 82" fill="none" xmlns="http://www.w3.org/2000/svg">
<path d="M0.166656 81.6667V66.4167H10.3333V10.5C10.3333 7.70415 11.3288 5.31074 13.3198 3.31977C15.3108 1.3288 17.7042 0.333313 20.5 0.333313H96.75V10.5H20.5V66.4167H51V81.6667H0.166656ZM66.25 81.6667C64.8097 81.6667 63.6024 81.1795 62.6281 80.2052C61.6538 79.2309 61.1667 78.0236 61.1667 76.5833V25.75C61.1667 24.3097 61.6538 23.1024 62.6281 22.1281C63.6024 21.1538 64.8097 20.6666 66.25 20.6666H96.75C98.1903 20.6666 99.3976 21.1538 100.372 22.1281C101.346 23.1024 101.833 24.3097 101.833 25.75V76.5833C101.833 78.0236 101.346 79.2309 100.372 80.2052C99.3976 81.1795 98.1903 81.6667 96.75 81.6667H66.25Z" fill="#F4F1F1"/>
</svg>
