<svg width="61" height="61" viewBox="0 0 61 61" fill="none" xmlns="http://www.w3.org/2000/svg">
<path d="M30.4999 43.2083C31.2201 43.2083 31.8237 42.9647 32.3109 42.4776C32.798 41.9904 33.0416 41.3868 33.0416 40.6666C33.0416 39.9465 32.798 39.3429 32.3109 38.8557C31.8237 38.3686 31.2201 38.125 30.4999 38.125C29.7798 38.125 29.1761 38.3686 28.689 38.8557C28.2018 39.3429 27.9583 39.9465 27.9583 40.6666C27.9583 41.3868 28.2018 41.9904 28.689 42.4776C29.1761 42.9647 29.7798 43.2083 30.4999 43.2083ZM27.9583 33.0416H33.0416V17.7916H27.9583V33.0416ZM30.4999 55.9166C26.9839 55.9166 23.6798 55.2495 20.5874 53.9151C17.4951 52.5807 14.8051 50.7698 12.5176 48.4823C10.2301 46.1948 8.41919 43.5048 7.08481 40.4125C5.75044 37.3201 5.08325 34.016 5.08325 30.5C5.08325 26.984 5.75044 23.6798 7.08481 20.5875C8.41919 17.4951 10.2301 14.8052 12.5176 12.5177C14.8051 10.2302 17.4951 8.41925 20.5874 7.08488C23.6798 5.7505 26.9839 5.08331 30.4999 5.08331C34.0159 5.08331 37.3201 5.7505 40.4124 7.08488C43.5048 8.41925 46.1947 10.2302 48.4822 12.5177C50.7697 14.8052 52.5806 17.4951 53.915 20.5875C55.2494 23.6798 55.9166 26.984 55.9166 30.5C55.9166 34.016 55.2494 37.3201 53.915 40.4125C52.5806 43.5048 50.7697 46.1948 48.4822 48.4823C46.1947 50.7698 43.5048 52.5807 40.4124 53.9151C37.3201 55.2495 34.0159 55.9166 30.4999 55.9166Z" fill="#F93A3A"/>
</svg>
