<svg width="81" height="101" viewBox="0 0 81 101" fill="none" xmlns="http://www.w3.org/2000/svg">
<path d="M40.5 100.917C28.8201 97.9757 19.1779 91.2745 11.5734 80.813C3.96892 70.3515 0.166664 58.7347 0.166664 45.9625V15.2083L40.5 0.083313L80.8333 15.2083V45.9625C80.8333 58.7347 77.0311 70.3515 69.4266 80.813C61.822 91.2745 52.1799 97.9757 40.5 100.917ZM40.5 75.7083C47.4743 75.7083 53.4193 73.2505 58.3349 68.3349C63.2505 63.4193 65.7083 57.4743 65.7083 50.5C65.7083 43.5257 63.2505 37.5807 58.3349 32.6651C53.4193 27.7495 47.4743 25.2916 40.5 25.2916C33.5257 25.2916 27.5807 27.7495 22.6651 32.6651C17.7495 37.5807 15.2917 43.5257 15.2917 50.5C15.2917 57.4743 17.7495 63.4193 22.6651 68.3349C27.5807 73.2505 33.5257 75.7083 40.5 75.7083ZM48.8187 62.3479L37.9792 51.5083V35.375H43.0208V49.4916L52.3479 58.8187L48.8187 62.3479Z" fill="#F4F1F1"/>
</svg>
