<svg width="127" height="127" viewBox="0 0 127 127" fill="none" xmlns="http://www.w3.org/2000/svg">
<path d="M47.625 42.3334H79.375V31.75C79.375 27.3403 77.8316 23.592 74.7447 20.5052C71.6579 17.4184 67.9097 15.875 63.5 15.875C59.0902 15.875 55.342 17.4184 52.2552 20.5052C49.1684 23.592 47.625 27.3403 47.625 31.75V42.3334ZM95.25 121.708C87.9298 121.708 81.6901 119.129 76.5307 113.969C71.3713 108.81 68.7916 102.57 68.7916 95.25C68.7916 87.9299 71.3713 81.6901 76.5307 76.5307C81.6901 71.3714 87.9298 68.7917 95.25 68.7917C102.57 68.7917 108.81 71.3714 113.969 76.5307C119.129 81.6901 121.708 87.9299 121.708 95.25C121.708 102.57 119.129 108.81 113.969 113.969C108.81 119.129 102.57 121.708 95.25 121.708ZM103.981 107.685L107.685 103.981L97.8958 94.1917V79.375H92.6041V96.3083L103.981 107.685ZM64.8229 116.417H31.75C28.8395 116.417 26.348 115.38 24.2755 113.308C22.2029 111.235 21.1666 108.744 21.1666 105.833V52.9167C21.1666 50.0063 22.2029 47.5148 24.2755 45.4422C26.348 43.3696 28.8395 42.3334 31.75 42.3334H37.0416V31.75C37.0416 24.4299 39.6213 18.1901 44.7807 13.0307C49.9401 7.87137 56.1798 5.29169 63.5 5.29169C70.8201 5.29169 77.0599 7.87137 82.2192 13.0307C87.3786 18.1901 89.9583 24.4299 89.9583 31.75V42.3334H95.25C98.1604 42.3334 100.652 43.3696 102.724 45.4422C104.797 47.5148 105.833 50.0063 105.833 52.9167V59.7959C104.069 59.1785 102.306 58.7596 100.542 58.5391C98.7777 58.3186 97.0138 58.2084 95.25 58.2084C84.9312 58.2084 76.1779 61.8023 68.9901 68.9901C61.8022 76.178 58.2083 84.9313 58.2083 95.25C58.2083 99.0424 58.8036 102.724 59.9942 106.296C61.1849 109.868 62.7944 113.242 64.8229 116.417Z" fill="#F93A3A"/>
</svg>
