<svg width="128" height="128" viewBox="0 0 128 128" fill="none" xmlns="http://www.w3.org/2000/svg">
<path d="M96 42.6666H48V32C48 27.5555 49.5555 23.7778 52.6666 20.6666C55.7777 17.5555 59.5555 16 64 16C68.4444 16 72.2222 17.5555 75.3333 20.6666C78.4444 23.7778 80 27.5555 80 32H90.6666C90.6666 24.6222 88.0666 18.3333 82.8666 13.1333C77.6666 7.93331 71.3777 5.33331 64 5.33331C56.6222 5.33331 50.3333 7.93331 45.1333 13.1333C39.9333 18.3333 37.3333 24.6222 37.3333 32V42.6666H32C29.0666 42.6666 26.5555 43.7111 24.4666 45.8C22.3777 47.8889 21.3333 50.4 21.3333 53.3333V106.667C21.3333 109.6 22.3777 112.111 24.4666 114.2C26.5555 116.289 29.0666 117.333 32 117.333H96C98.9333 117.333 101.444 116.289 103.533 114.2C105.622 112.111 106.667 109.6 106.667 106.667V53.3333C106.667 50.4 105.622 47.8889 103.533 45.8C101.444 43.7111 98.9333 42.6666 96 42.6666ZM64 90.6666C61.0666 90.6666 58.5555 89.6222 56.4666 87.5333C54.3777 85.4444 53.3333 82.9333 53.3333 80C53.3333 77.0667 54.3777 74.5555 56.4666 72.4667C58.5555 70.3778 61.0666 69.3333 64 69.3333C66.9333 69.3333 69.4444 70.3778 71.5333 72.4667C73.6222 74.5555 74.6666 77.0667 74.6666 80C74.6666 82.9333 73.6222 85.4444 71.5333 87.5333C69.4444 89.6222 66.9333 90.6666 64 90.6666Z" fill="#FFBC1E"/>
</svg>
