<svg width="60" height="60" viewBox="0 0 60 60" fill="none" xmlns="http://www.w3.org/2000/svg">
<path d="M2.5 52.5L30 5L57.5 52.5H2.5ZM30 45C30.7083 45 31.3021 44.7604 31.7812 44.2812C32.2604 43.8021 32.5 43.2083 32.5 42.5C32.5 41.7917 32.2604 41.1979 31.7812 40.7188C31.3021 40.2396 30.7083 40 30 40C29.2917 40 28.6979 40.2396 28.2188 40.7188C27.7396 41.1979 27.5 41.7917 27.5 42.5C27.5 43.2083 27.7396 43.8021 28.2188 44.2812C28.6979 44.7604 29.2917 45 30 45ZM27.5 37.5H32.5V25H27.5V37.5Z" fill="#FFBC1E"/>
</svg>
